<?xml version="1.0" encoding="utf-8"?>
<!-- Generator: Adobe Illustrator 18.1.1, SVG Export Plug-In . SVG Version: 6.00 Build 0)  -->
<!DOCTYPE svg PUBLIC "-//W3C//DTD SVG 1.1//EN" "http://www.w3.org/Graphics/SVG/1.1/DTD/svg11.dtd">
<svg version="1.1" id="Layer_1" xmlns="http://www.w3.org/2000/svg" xmlns:xlink="http://www.w3.org/1999/xlink" x="0px" y="0px"
	 viewBox="0 0 270.1 400" enable-background="new 0 0 270.1 400" xml:space="preserve">
<g id="iPad_x5F_Mini_x5F_FRONT_2_">
	
		<linearGradient id="SVGID_1_" gradientUnits="userSpaceOnUse" x1="243.7803" y1="-1023.2512" x2="1897.7803" y2="-1023.2512" gradientTransform="matrix(0.1632 0 0 -0.1632 -39.6268 32.9867)">
		<stop  offset="0" style="stop-color:#939598"/>
		<stop  offset="0.4944" style="stop-color:#F3F3F3"/>
		<stop  offset="1" style="stop-color:#939598"/>
	</linearGradient>
	<path fill="url(#SVGID_1_)" d="M270.1,380.3c0,11.3-8.5,19.7-19.7,19.7h-14.5H34.3H19.8c-11.2,0-19.7-8.4-19.7-19.7V19.7
		C0.2,8.4,8.7,0,19.8,0h14.5h201.6h14.5c11.2,0,19.7,8.4,19.7,19.7V380.3z"/>
	<g>
		<g>
			<g>
				
					<linearGradient id="SVGID_2_" gradientUnits="userSpaceOnUse" x1="1773.9526" y1="-2230.2576" x2="1867.1123" y2="-2201.7393" gradientTransform="matrix(0.1632 0 0 -0.1632 -39.6268 32.9867)">
					<stop  offset="0" style="stop-color:#010101;stop-opacity:0"/>
					<stop  offset="1" style="stop-color:#FFFFFF"/>
				</linearGradient>
				<path fill="url(#SVGID_2_)" d="M263.6,391.1c-0.3,0.3-0.6,0.7-0.9,1c-3.3,3.3-7.8,5.2-12.9,5.2h-13.5v2.8h13.5
					c6.5,0,12-2.6,15.8-7L263.6,391.1z"/>
			</g>
		</g>
		
			<linearGradient id="SVGID_3_" gradientUnits="userSpaceOnUse" x1="252.4186" y1="93.6554" x2="288.627" y2="165.2676" gradientTransform="matrix(0.1632 0 0 -0.1632 -39.6268 32.9867)">
			<stop  offset="0" style="stop-color:#010101;stop-opacity:0"/>
			<stop  offset="1" style="stop-color:#FFFFFF"/>
		</linearGradient>
		<path fill="url(#SVGID_3_)" d="M2.8,20.3c0-5.1,1.9-9.7,5.3-13.1c0.4-0.4,0.7-0.7,1.1-1l-2-2C2.8,8.1,0,13.7,0,20.3v0.5h2.8
			L2.8,20.3L2.8,20.3z"/>
		
			<linearGradient id="SVGID_4_" gradientUnits="userSpaceOnUse" x1="1783.6804" y1="162.8988" x2="1887.3804" y2="162.8988" gradientTransform="matrix(0.1632 0 0 -0.1632 -39.6268 32.9867)">
			<stop  offset="0" style="stop-color:#010101;stop-opacity:0"/>
			<stop  offset="1" style="stop-color:#FFFFFF"/>
		</linearGradient>
		<path fill="url(#SVGID_4_)" d="M262.8,7.9c1.4,1.4,2.4,3,3.2,4.8l2.4-1.4c-3.1-6.5-9.2-10.8-16.9-11.4v2.8
			C255.9,3.2,259.8,5,262.8,7.9z"/>
		
			<linearGradient id="SVGID_5_" gradientUnits="userSpaceOnUse" x1="253.968" y1="-2115.9731" x2="284.7132" y2="-2211.6248" gradientTransform="matrix(0.1632 0 0 -0.1632 -39.6268 32.9867)">
			<stop  offset="0" style="stop-color:#010101;stop-opacity:0"/>
			<stop  offset="1" style="stop-color:#FFFFFF"/>
		</linearGradient>
		<path fill="url(#SVGID_5_)" d="M2.8,379.7v-9H0v9c0,5.9,2.1,10.9,5.7,14.7l2-2C4.5,389.1,2.8,384.6,2.8,379.7z"/>
	</g>
	<path fill="#FFFFFF" stroke="#6F7073" stroke-width="2.4293" stroke-miterlimit="10" d="M250.3,2.8h-14.7h-201H20
		c-4.7,0-9.1,1.7-12.2,4.8C4.7,10.8,3,15.1,3,19.9v360.2c0,4.8,1.7,9.1,4.9,12.3c3.1,3.1,7.5,4.8,12.2,4.8h14.5h201h14.7
		c4.7,0,9.1-1.7,12.2-4.8c3.2-3.1,4.9-7.5,4.9-12.3V19.9c0-4.8-1.7-9.1-4.9-12.3C259.3,4.5,255,2.8,250.3,2.8z"/>
	<path fill="#FFFFFF" d="M250.3,2.8h-14.7h-201H20c-4.7,0-9.1,1.7-12.2,4.8C4.7,10.8,3,15.1,3,19.9v360.2c0,4.8,1.7,9.1,4.9,12.3
		c3.1,3.1,7.5,4.8,12.2,4.8h14.5h201h14.7c4.7,0,9.1-1.7,12.2-4.8c3.2-3.1,4.9-7.5,4.9-12.3V19.9c0-4.8-1.7-9.1-4.9-12.3
		C259.3,4.5,255,2.8,250.3,2.8z"/>
	
		<linearGradient id="SVGID_6_" gradientUnits="userSpaceOnUse" x1="1792.3859" y1="-60.2018" x2="343.511" y2="-1993.9365" gradientTransform="matrix(0.1632 0 0 -0.1632 -39.6268 32.9867)">
		<stop  offset="0" style="stop-color:#D9205E"/>
		<stop  offset="1" style="stop-color:#67328F"/>
	</linearGradient>
	<path fill="url(#SVGID_6_)" d="M16,359.2c-0.2,0-0.3-0.1-0.3-0.3V41.1c0-0.2,0.1-0.3,0.3-0.3h238.3c0.2,0,0.3,0.1,0.3,0.3v317.8
		c0,0.2-0.1,0.3-0.3,0.3L16,359.2L16,359.2z"/>
	<path fill="#D3D4D5" d="M254.3,41.1v317.8H16V41.1H254.3 M254.3,40.5H16c-0.3,0-0.6,0.3-0.6,0.6v317.8c0,0.3,0.3,0.6,0.6,0.6h238.3
		c0.3,0,0.6-0.3,0.6-0.6V41.1C254.9,40.8,254.7,40.5,254.3,40.5L254.3,40.5z"/>
	<g>
		
			<linearGradient id="SVGID_7_" gradientUnits="userSpaceOnUse" x1="1070.7803" y1="74.4463" x2="1070.7803" y2="45.7547" gradientTransform="matrix(0.1632 0 0 -0.1632 -39.6268 32.9867)">
			<stop  offset="0" style="stop-color:#010101"/>
			<stop  offset="1" style="stop-color:#231F20"/>
		</linearGradient>
		<path fill="url(#SVGID_7_)" d="M135.1,20.5c1.4,0,2.5,1.1,2.5,2.5c0,1.4-1.1,2.5-2.5,2.5c-1.4,0-2.5-1.1-2.5-2.5
			C132.7,21.6,133.8,20.5,135.1,20.5z"/>
		<path opacity="0.1" fill="#F3F3F3" enable-background="new    " d="M135.1,25.4c-1.4,0-2.5-1-2.5-2.4c0,1.4,1.1,2.5,2.5,2.5
			c1.4,0,2.5-1.1,2.5-2.5C137.6,24.4,136.5,25.4,135.1,25.4z"/>
		
			<linearGradient id="SVGID_8_" gradientUnits="userSpaceOnUse" x1="1070.7803" y1="54.0877" x2="1070.7803" y2="67.5119" gradientTransform="matrix(0.1632 0 0 -0.1632 -39.6268 32.9867)">
			<stop  offset="0" style="stop-color:#010101"/>
			<stop  offset="1" style="stop-color:#231F20"/>
		</linearGradient>
		<path fill="url(#SVGID_8_)" d="M135.1,21.9c0.7,0,1.2,0.5,1.2,1.2c0,0.7-0.5,1.2-1.2,1.2c-0.7,0-1.2-0.5-1.2-1.2
			C133.9,22.4,134.5,21.9,135.1,21.9z"/>
		
			<radialGradient id="SVGID_9_" cx="1070.8059" cy="60.675" r="5.6733" gradientTransform="matrix(0.1632 0 0 -0.1632 -39.6268 32.9867)" gradientUnits="userSpaceOnUse">
			<stop  offset="0" style="stop-color:#2376BC"/>
			<stop  offset="1" style="stop-color:#2BACE2"/>
		</radialGradient>
		<path fill="url(#SVGID_9_)" d="M135.1,22.2c0.5,0,0.9,0.4,0.9,0.9c0,0.5-0.4,0.9-0.9,0.9c-0.5,0-0.9-0.4-0.9-0.9
			C134.2,22.6,134.6,22.2,135.1,22.2z"/>
		<path opacity="0.5" fill="#D2E3F0" enable-background="new    " d="M135.1,22.3c0.2,0,0.4,0.1,0.4,0.1c0,0.1-0.2,0.1-0.4,0.1
			c-0.2,0-0.4-0.1-0.4-0.1C134.7,22.4,134.9,22.3,135.1,22.3z"/>
	</g>
	<g>
		<g>
			
				<linearGradient id="SVGID_10_" gradientUnits="userSpaceOnUse" x1="1070.8801" y1="-2057.605" x2="1070.8801" y2="-2177.3704" gradientTransform="matrix(0.1632 0 0 -0.1632 -39.6268 32.9867)">
				<stop  offset="0" style="stop-color:#D3D4D5"/>
				<stop  offset="1" style="stop-color:#F3F3F3"/>
			</linearGradient>
			<path fill="url(#SVGID_10_)" d="M145.1,378.3c0,5.5-4.4,9.9-9.9,9.9c-5.5,0-9.9-4.4-9.9-9.9c0-5.5,4.4-9.9,9.9-9.9
				C140.6,368.4,145.1,372.8,145.1,378.3z"/>
			
				<linearGradient id="SVGID_11_" gradientUnits="userSpaceOnUse" x1="1070.8801" y1="-2186.3972" x2="1070.8801" y2="-2137.9556" gradientTransform="matrix(0.1632 0 0 -0.1632 -39.6268 32.9867)">
				<stop  offset="0" style="stop-color:#FFFFFF;stop-opacity:0"/>
				<stop  offset="1" style="stop-color:#FFFFFF"/>
			</linearGradient>
			<path opacity="0.5" fill="url(#SVGID_11_)" enable-background="new    " d="M145.1,378.3c0,5.5-4.4,9.9-9.9,9.9
				c-5.5,0-9.9-4.4-9.9-9.9C132,381.8,139.1,380.9,145.1,378.3z"/>
			<g opacity="0.1">
				<path fill="#FFFFFF" d="M135.1,368.7c5.5,0,9.9,4.1,9.9,9.6c0-5.5-4.4-9.9-9.9-9.9c-5.5,0-9.9,4.4-9.9,9.9
					C125.2,372.8,129.7,368.7,135.1,368.7z"/>
			</g>
		</g>
		<g>
			<path opacity="0.1" fill="#020202" enable-background="new    " d="M137.1,382.5h-3.9c-1,0-1.8-0.8-1.8-1.8v-3.9
				c0-1,0.8-1.8,1.8-1.8h3.9c1,0,1.8,0.8,1.8,1.8v3.9C138.9,381.8,138.1,382.5,137.1,382.5z M133.2,375.3c-0.9,0-1.6,0.7-1.6,1.6
				v3.9c0,0.9,0.7,1.6,1.6,1.6h3.9c0.9,0,1.6-0.7,1.6-1.6v-3.9c0-0.9-0.7-1.6-1.6-1.6H133.2z M137.1,381.9h-3.9
				c-0.6,0-1.1-0.5-1.1-1.1v-3.9c0-0.6,0.5-1.1,1.1-1.1h3.9c0.6,0,1.1,0.5,1.1,1.1v3.9C138.2,381.4,137.7,381.9,137.1,381.9z
				 M133.2,375.9c-0.5,0-0.9,0.4-0.9,0.9v3.9c0,0.5,0.4,0.9,0.9,0.9h3.9c0.5,0,0.9-0.4,0.9-0.9v-3.9c0-0.5-0.4-0.9-0.9-0.9H133.2z"
				/>
			<path fill="#FFFFFF" d="M137.1,375.8c0.6,0,1,0.5,1,1v3.9c0,0.6-0.5,1-1,1h-3.9c-0.6,0-1-0.5-1-1v-3.9c0-0.6,0.5-1,1-1H137.1
				 M137.1,375.2h-3.9c-0.9,0-1.7,0.8-1.7,1.7v3.9c0,0.9,0.8,1.7,1.7,1.7h3.9c0.9,0,1.7-0.8,1.7-1.7v-3.9
				C138.8,375.9,138,375.2,137.1,375.2L137.1,375.2z"/>
		</g>
	</g>
</g>
</svg>
