<?xml version="1.0" encoding="utf-8"?>
<!-- Generator: Adobe Illustrator 15.0.0, SVG Export Plug-In . SVG Version: 6.00 Build 0)  -->
<!DOCTYPE svg PUBLIC "-//W3C//DTD SVG 1.1//EN" "http://www.w3.org/Graphics/SVG/1.1/DTD/svg11.dtd">
<svg version="1.1" id="Layer_1" xmlns="http://www.w3.org/2000/svg" xmlns:xlink="http://www.w3.org/1999/xlink" x="0px" y="0px"
	 width="128px" height="128px" viewBox="-14 -14 128 128" enable-background="new -14 -14 128 128" xml:space="preserve">
<path fill="#323232" d="M71.786,81.307c-6.707,4.695-14.538,7.058-22.558,6.943c-1.057-0.016-2.111-0.062-3.152-0.158
	c-0.424-0.04-0.853-0.11-1.279-0.165c-0.815-0.104-1.632-0.215-2.436-0.373c-0.491-0.095-0.97-0.215-1.453-0.332
	c-0.783-0.183-1.56-0.365-2.323-0.595c-0.37-0.11-0.726-0.245-1.089-0.364c-0.883-0.294-1.758-0.602-2.61-0.96
	c-0.195-0.078-0.38-0.164-0.574-0.253c-0.999-0.437-1.98-0.902-2.934-1.42c-0.044-0.021-0.084-0.046-0.127-0.071
	c-3.228-1.765-6.177-3.974-8.762-6.557c-0.044-0.047-0.084-0.093-0.127-0.135c-0.799-0.808-1.567-1.657-2.296-2.534
	c-0.156-0.183-0.3-0.387-0.454-0.577c-5.271-6.589-8.446-14.929-8.446-24.005h10.137L5.082,25.427l-16.218,24.327h10.138
	c0,10.668,3.326,20.552,8.974,28.724c0.071,0.121,0.119,0.238,0.198,0.349c0.587,0.84,1.235,1.609,1.86,2.4
	c0.237,0.301,0.451,0.611,0.697,0.902c0.928,1.118,1.909,2.179,2.916,3.208c0.093,0.096,0.187,0.198,0.286,0.293
	c3.39,3.4,7.214,6.257,11.384,8.537c0.114,0.064,0.222,0.135,0.336,0.19c1.204,0.648,2.433,1.238,3.692,1.782
	c0.309,0.135,0.613,0.283,0.925,0.42c1.078,0.443,2.172,0.832,3.279,1.195c0.522,0.183,1.045,0.365,1.576,0.522
	c0.964,0.292,1.956,0.528,2.954,0.769c0.661,0.149,1.318,0.317,1.991,0.452c0.277,0.054,0.542,0.135,0.821,0.18
	c0.941,0.168,1.884,0.263,2.822,0.374c0.342,0.041,0.672,0.104,1.018,0.135c1.686,0.166,3.374,0.278,5.056,0.278
	c10.308,0,20.358-3.154,28.981-9.195c2.749-1.925,3.422-5.717,1.488-8.466C78.327,80.046,74.527,79.38,71.786,81.307z"/>
<path fill="#323232" d="M100.377,49.754c-0.008-10.626-3.31-20.495-8.932-28.652c-0.081-0.135-0.137-0.278-0.231-0.411
	c-0.697-0.994-1.457-1.924-2.219-2.859c-0.085-0.11-0.166-0.23-0.26-0.34c-5.142-6.239-11.604-11.062-18.92-14.216
	c-0.205-0.086-0.405-0.181-0.603-0.269c-1.171-0.482-2.366-0.91-3.571-1.308c-0.437-0.146-0.861-0.301-1.299-0.435
	c-1.056-0.316-2.114-0.57-3.192-0.822c-0.594-0.134-1.18-0.286-1.783-0.404c-0.291-0.055-0.577-0.144-0.868-0.198
	c-0.8-0.14-1.6-0.2-2.409-0.301c-0.554-0.072-1.103-0.16-1.655-0.215c-1.348-0.126-2.687-0.181-4.025-0.202
	c-0.244-0.003-0.479-0.035-0.719-0.035c-0.048,0-0.088,0.011-0.131,0.017C39.268-0.891,29.234,2.214,20.621,8.25
	c-2.751,1.924-3.419,5.719-1.49,8.47c1.923,2.751,5.717,3.42,8.469,1.492c6.652-4.657,14.417-7.02,22.376-6.944
	c1.14,0.007,2.266,0.062,3.38,0.169c0.34,0.035,0.681,0.086,1.022,0.131c0.919,0.11,1.828,0.237,2.716,0.411
	c0.396,0.08,0.784,0.183,1.171,0.269c0.88,0.199,1.76,0.413,2.614,0.673c0.269,0.08,0.54,0.182,0.807,0.27
	c0.983,0.321,1.949,0.667,2.892,1.062c0.096,0.04,0.189,0.088,0.283,0.126c5.673,2.44,10.646,6.193,14.525,10.891
	c0.024,0.027,0.047,0.062,0.072,0.089c5.456,6.649,8.743,15.146,8.751,24.395H78.064l16.229,24.328l16.214-24.328H100.377z"/>
</svg>
