<?xml version="1.0" encoding="utf-8"?>
<!-- Generator: Adobe Illustrator 15.0.0, SVG Export Plug-In . SVG Version: 6.00 Build 0)  -->
<!DOCTYPE svg PUBLIC "-//W3C//DTD SVG 1.1//EN" "http://www.w3.org/Graphics/SVG/1.1/DTD/svg11.dtd">
<svg version="1.1" id="Layer_1" xmlns="http://www.w3.org/2000/svg" xmlns:xlink="http://www.w3.org/1999/xlink" x="0px" y="0px"
	 width="128px" height="128px" viewBox="0 0 128 128" enable-background="new 0 0 128 128" xml:space="preserve">
<path fill="#333333" d="M114,74c0,1.104-0.896,2-2,2H95c-1.104,0-2-0.896-2-2V30c0-1.104,0.896-2,2-2h17c1.104,0,2,0.896,2,2V74z"/>
<path fill="#333333" d="M89,74c0,1.104-0.896,2-2,2H70c-1.104,0-2-0.896-2-2V30c0-1.104,0.896-2,2-2h17c1.104,0,2,0.896,2,2V74z"/>
<path fill="#333333" d="M58,98c0,1.104-0.896,2-2,2H39c-1.104,0-2-0.896-2-2V54c0-1.104,0.896-2,2-2h17c1.104,0,2,0.896,2,2V98z"/>
<path fill="#333333" d="M33,98c0,1.104-0.896,2-2,2H14c-1.104,0-2-0.896-2-2V54c0-1.104,0.896-2,2-2h17c1.104,0,2,0.896,2,2V98z"/>
</svg>
