<?xml version="1.0" encoding="utf-8"?>
<!-- Generator: Adobe Illustrator 18.1.1, SVG Export Plug-In . SVG Version: 6.00 Build 0)  -->
<!DOCTYPE svg PUBLIC "-//W3C//DTD SVG 1.1//EN" "http://www.w3.org/Graphics/SVG/1.1/DTD/svg11.dtd">
<svg version="1.1" id="Layer_1" xmlns="http://www.w3.org/2000/svg" xmlns:xlink="http://www.w3.org/1999/xlink" x="0px" y="0px"
	 viewBox="0 0 271 401" enable-background="new 0 0 271 401" xml:space="preserve">
<g id="iPad_x5F_Mini_x5F_FRONT_2_">
	<path fill="#FFFFFF" stroke="#D1D3D4" stroke-width="0.5" stroke-miterlimit="10" d="M250.7,3.3H236H35H20.5
		c-4.7,0-9.1,1.7-12.2,4.8c-3.2,3.1-4.9,7.5-4.9,12.3v360.2c0,4.8,1.7,9.1,4.9,12.3c3.1,3.1,7.5,4.8,12.2,4.8H35h201h14.7
		c4.7,0,9.1-1.7,12.2-4.8c3.2-3.1,4.9-7.5,4.9-12.3V20.4c0-4.8-1.7-9.1-4.9-12.3C259.8,5,255.4,3.3,250.7,3.3z"/>
	<path fill="#FFFFFF" stroke="#D1D3D4" stroke-width="0.5" stroke-miterlimit="10" d="M250.7,3.3H236H35H20.5
		c-4.7,0-9.1,1.7-12.2,4.8c-3.2,3.1-4.9,7.5-4.9,12.3v360.2c0,4.8,1.7,9.1,4.9,12.3c3.1,3.1,7.5,4.8,12.2,4.8H35h201h14.7
		c4.7,0,9.1-1.7,12.2-4.8c3.2-3.1,4.9-7.5,4.9-12.3V20.4c0-4.8-1.7-9.1-4.9-12.3C259.8,5,255.4,3.3,250.7,3.3z"/>
	
		<linearGradient id="SVGID_1_" gradientUnits="userSpaceOnUse" x1="299.5901" y1="-102.3033" x2="1850.3999" y2="-1950.4865" gradientTransform="matrix(0.1632 0 0 -0.1632 -39.3705 33.5652)">
		<stop  offset="0" style="stop-color:#81CCB9"/>
		<stop  offset="1" style="stop-color:#69C17F"/>
	</linearGradient>
	<path fill="url(#SVGID_1_)" stroke="#D1D3D4" stroke-width="0.5" stroke-miterlimit="10" d="M16.4,359.7c-0.2,0-0.3-0.1-0.3-0.3
		V41.6c0-0.2,0.1-0.3,0.3-0.3h238.3c0.2,0,0.3,0.1,0.3,0.3v317.8c0,0.2-0.1,0.3-0.3,0.3L16.4,359.7L16.4,359.7z"/>
	<path fill="#D3D4D5" stroke="#D1D3D4" stroke-width="0.5" stroke-miterlimit="10" d="M254.7,41.6v317.8H16.4V41.6H254.7 M254.7,41
		H16.4c-0.3,0-0.6,0.3-0.6,0.6v317.8c0,0.3,0.3,0.6,0.6,0.6h238.3c0.3,0,0.6-0.3,0.6-0.6V41.6C255.4,41.3,255.1,41,254.7,41
		L254.7,41z"/>
	<g>
		<path fill="#FFFFFF" stroke="#D1D3D4" stroke-width="0.5" stroke-miterlimit="10" d="M135.6,21c1.4,0,2.5,1.1,2.5,2.5
			c0,1.4-1.1,2.5-2.5,2.5c-1.4,0-2.5-1.1-2.5-2.5C133.1,22.1,134.2,21,135.6,21z"/>
		
			<linearGradient id="SVGID_2_" gradientUnits="userSpaceOnUse" x1="1071.8733" y1="54.585" x2="1071.8733" y2="68.0092" gradientTransform="matrix(0.1632 0 0 -0.1632 -39.3705 33.5652)">
			<stop  offset="0" style="stop-color:#010101"/>
			<stop  offset="1" style="stop-color:#231F20"/>
		</linearGradient>
		<path fill="url(#SVGID_2_)" stroke="#D1D3D4" stroke-width="0.5" stroke-miterlimit="10" d="M135.6,22.4c0.7,0,1.2,0.5,1.2,1.2
			c0,0.7-0.5,1.2-1.2,1.2c-0.7,0-1.2-0.5-1.2-1.2C134.4,22.9,134.9,22.4,135.6,22.4z"/>
		
			<radialGradient id="SVGID_3_" cx="1071.8989" cy="61.1723" r="5.6733" gradientTransform="matrix(0.1632 0 0 -0.1632 -39.3705 33.5652)" gradientUnits="userSpaceOnUse">
			<stop  offset="0" style="stop-color:#2376BC"/>
			<stop  offset="1" style="stop-color:#2BACE2"/>
		</radialGradient>
		<path fill="url(#SVGID_3_)" stroke="#D1D3D4" stroke-width="0.5" stroke-miterlimit="10" d="M135.6,22.7c0.5,0,0.9,0.4,0.9,0.9
			c0,0.5-0.4,0.9-0.9,0.9c-0.5,0-0.9-0.4-0.9-0.9C134.7,23.1,135.1,22.7,135.6,22.7z"/>
		<path opacity="0.5" fill="#D2E3F0" stroke="#D1D3D4" stroke-width="0.5" stroke-miterlimit="10" enable-background="new    " d="
			M135.6,22.8c0.2,0,0.4,0.1,0.4,0.1s-0.2,0.1-0.4,0.1c-0.2,0-0.4-0.1-0.4-0.1S135.4,22.8,135.6,22.8z"/>
	</g>
	<g>
		<g>
			<path fill="#FFFFFF" stroke="#D1D3D4" stroke-width="0.5" stroke-miterlimit="10" d="M145.5,378.8c0,5.5-4.4,9.9-9.9,9.9
				c-5.5,0-9.9-4.4-9.9-9.9c0-5.5,4.4-9.9,9.9-9.9C141.1,368.9,145.5,373.3,145.5,378.8z"/>
		</g>
		<g>
			<path opacity="0.1" fill="#020202" stroke="#D1D3D4" stroke-width="0.5" stroke-miterlimit="10" enable-background="new    " d="
				M137.5,383h-3.9c-1,0-1.8-0.8-1.8-1.8v-3.9c0-1,0.8-1.8,1.8-1.8h3.9c1,0,1.8,0.8,1.8,1.8v3.9C139.3,382.3,138.5,383,137.5,383z
				 M133.6,375.8c-0.9,0-1.6,0.7-1.6,1.6v3.9c0,0.9,0.7,1.6,1.6,1.6h3.9c0.9,0,1.6-0.7,1.6-1.6v-3.9c0-0.9-0.7-1.6-1.6-1.6H133.6z
				 M137.5,382.4h-3.9c-0.6,0-1.1-0.5-1.1-1.1v-3.9c0-0.6,0.5-1.1,1.1-1.1h3.9c0.6,0,1.1,0.5,1.1,1.1v3.9
				C138.7,381.9,138.2,382.4,137.5,382.4z M133.6,376.4c-0.5,0-0.9,0.4-0.9,0.9v3.9c0,0.5,0.4,0.9,0.9,0.9h3.9
				c0.5,0,0.9-0.4,0.9-0.9v-3.9c0-0.5-0.4-0.9-0.9-0.9H133.6z"/>
			<path fill="#FFFFFF" stroke="#D1D3D4" stroke-width="0.5" stroke-miterlimit="10" d="M137.5,376.3c0.6,0,1,0.5,1,1v3.9
				c0,0.6-0.5,1-1,1h-3.9c-0.6,0-1-0.5-1-1v-3.9c0-0.6,0.5-1,1-1H137.5 M137.5,375.7h-3.9c-0.9,0-1.7,0.8-1.7,1.7v3.9
				c0,0.9,0.8,1.7,1.7,1.7h3.9c0.9,0,1.7-0.8,1.7-1.7v-3.9C139.2,376.4,138.5,375.7,137.5,375.7L137.5,375.7z"/>
		</g>
	</g>
</g>
</svg>
